HIERARCHY
ROOT Hips
{
 OFFSET 0.000000 0.000000 0.000000
 CHANNELS 6 Xposition Yposition Zposition Yrotation Xrotation Zrotation
 JOINT Chest
 {
  OFFSET 0.000000 9.585900 0.002600
  CHANNELS 3 Yrotation Xrotation Zrotation
  JOINT Chest2
  {
   OFFSET 0.000000 9.601200 -0.005300
   CHANNELS 3 Yrotation Xrotation Zrotation
   JOINT Chest3
   {
    OFFSET 0.000000 9.561800 0.000000
    CHANNELS 3 Yrotation Xrotation Zrotation
    JOINT Chest4
    {
     OFFSET 0.000000 9.552100 0.000000
     CHANNELS 3 Yrotation Xrotation Zrotation
     JOINT Neck
     {
      OFFSET 0.000000 14.453000 0.000000
      CHANNELS 3 Yrotation Xrotation Zrotation
      JOINT Head
      {
       OFFSET 0.000000 8.936500 -0.011300
       CHANNELS 3 Yrotation Xrotation Zrotation
       End Site
       {
        OFFSET 0.000000 17.073600 -0.006000
       }
      }
     }
     JOINT RightCollar
     {
      OFFSET -2.921100 9.558500 0.000000
      CHANNELS 3 Yrotation Xrotation Zrotation
      JOINT RightShoulder
      {
       OFFSET -13.519700 0.000000 0.000000
       CHANNELS 3 Yrotation Xrotation Zrotation
       JOINT RightElbow
       {
        OFFSET 0.000000 -29.696600 0.000000
        CHANNELS 3 Yrotation Xrotation Zrotation
        JOINT RightWrist
        {
         OFFSET 0.000000 -24.004700 0.000000
         CHANNELS 3 Yrotation Xrotation Zrotation
         End Site
         {
          OFFSET 0.000000 -17.728500 0.000000
         }
        }
       }
      }
     }
     JOINT LeftCollar
     {
      OFFSET 2.921100 9.558500 0.000000
      CHANNELS 3 Yrotation Xrotation Zrotation
      JOINT LeftShoulder
      {
       OFFSET 13.519700 0.000000 0.000000
       CHANNELS 3 Yrotation Xrotation Zrotation
       JOINT LeftElbow
       {
        OFFSET 0.000000 -29.696600 0.000000
        CHANNELS 3 Yrotation Xrotation Zrotation
        JOINT LeftWrist
        {
         OFFSET 0.000000 -24.004700 0.000000
         CHANNELS 3 Yrotation Xrotation Zrotation
         End Site
         {
          OFFSET 0.000000 -17.728500 0.000000
         }
        }
       }
      }
     }
    }
   }
  }
 }
 JOINT RightHip
 {
  OFFSET -7.771700 -0.012900 -0.001300
  CHANNELS 3 Yrotation Xrotation Zrotation
  JOINT RightKnee
  {
   OFFSET 0.000000 -40.869800 0.001200
   CHANNELS 3 Yrotation Xrotation Zrotation
   JOINT RightAnkle
   {
    OFFSET 0.000000 -39.717900 0.002100
    CHANNELS 3 Yrotation Xrotation Zrotation
    JOINT RightToe
    {
     OFFSET 0.000000 -4.965400 11.033500
     CHANNELS 3 Yrotation Xrotation Zrotation
     End Site
     {
      OFFSET 0.000000 -1.423100 5.872300
     }
    }
   }
  }
 }
 JOINT LeftHip
 {
  OFFSET 7.771700 -0.012900 -0.001300
  CHANNELS 3 Yrotation Xrotation Zrotation
  JOINT LeftKnee
  {
   OFFSET 0.000000 -40.869800 0.001200
   CHANNELS 3 Yrotation Xrotation Zrotation
   JOINT LeftAnkle
   {
    OFFSET 0.000000 -39.717900 0.002100
    CHANNELS 3 Yrotation Xrotation Zrotation
    JOINT LeftToe
    {
     OFFSET 0.000000 -4.965400 11.033500
     CHANNELS 3 Yrotation Xrotation Zrotation
     End Site
     {
      OFFSET 0.000000 -1.423100 5.872300
     }
    }
   }
  }
 }
}
MOTION
Frames: 11
Frame Time: 0.008333
-31.373674 50.648745 19.843819 164.660548 -6.139097 -0.404783 2.610564 6.477100 0.302705 0.092627 0.260875 -0.017161 0.164431 0.463869 -0.038069 2.158797 6.147142 -0.405784 1.879880 19.012363 0.668979 3.227117 -0.489349 0.656678 2.798909 6.275778 0.496492 -8.551511 -8.957338 -7.508951 -51.909421 -85.397818 73.578484 -2.156394 -3.933260 -36.367477 -4.068046 1.858160 -0.165680 18.935768 -4.157679 2.607058 51.225491 -73.075866 -76.400578 4.186413 -0.464603 23.999693 -18.034158 -72.941801 7.935128 -145.243012 82.969205 -142.019022 -3.079710 -17.614855 -3.982266 -0.136053 0.635871 -0.056959 -5.827376 -78.750054 24.325994 101.183524 77.256070 97.376038 -13.796368 -24.578214 0.238470 -0.402806 -1.107477 -0.194185
-31.374073 50.648424 19.843851 164.672841 -6.129497 -0.403055 2.598218 6.468766 0.297721 0.093562 0.263841 -0.022075 0.164566 0.463823 -0.038411 2.158626 6.143742 -0.401991 1.882990 19.014985 0.659068 3.231146 -0.489720 0.642316 2.797472 6.278534 0.498004 -8.541452 -8.957271 -7.502086 -51.909522 -85.411255 73.564408 -2.161379 -3.930694 -36.375986 -4.057603 1.857421 -0.177482 18.937659 -4.151729 2.612602 51.226701 -73.088614 -76.412347 4.187927 -0.472229 24.012232 -18.049448 -72.952492 7.939033 -145.269262 82.967499 -142.045557 -3.081725 -17.615222 -3.982279 -0.139972 0.635936 -0.058389 -5.847863 -78.755704 24.336931 101.176826 77.259999 97.367939 -13.821085 -24.594194 0.235836 -0.419701 -1.099492 -0.190165
-31.374353 50.648090 19.844145 164.680655 -6.119119 -0.402962 2.592648 6.462126 0.292026 0.093786 0.264154 -0.022339 0.168009 0.466038 -0.041971 2.157600 6.142799 -0.406177 1.888186 19.011822 0.661117 3.227864 -0.492733 0.651423 2.798862 6.276853 0.504812 -8.544221 -8.959313 -7.493689 -51.897165 -85.417852 73.540948 -2.165233 -3.934421 -36.384927 -4.059178 1.851437 -0.175729 18.938973 -4.149687 2.622142 51.245412 -73.096903 -76.427832 4.188541 -0.472780 24.015264 -18.059286 -72.963482 7.942323 -145.275784 82.966877 -142.049982 -3.079291 -17.616662 -3.984923 -0.144205 0.638011 -0.058564 -5.883437 -78.760212 24.365411 101.166921 77.260210 97.351959 -13.828461 -24.616195 0.230462 -0.413634 -1.088697 -0.184327
-31.374180 50.647980 19.843214 164.684750 -6.117612 -0.404529 2.592531 6.462822 0.290033 0.093227 0.263673 -0.021471 0.166240 0.465103 -0.040789 2.165831 6.145664 -0.412390 1.885148 19.009145 0.662363 3.233559 -0.493386 0.643222 2.790684 6.272739 0.511804 -8.543862 -8.958462 -7.491356 -51.857518 -85.421855 73.485856 -2.167647 -3.941843 -36.393180 -4.064778 1.846707 -0.179294 18.935629 -4.150660 2.634252 51.276599 -73.101190 -76.457299 4.183642 -0.471771 24.014323 -18.066844 -72.966593 7.944888 -145.293293 82.963152 -142.067471 -3.069857 -17.612411 -3.981226 -0.152473 0.634336 -0.065722 -5.914154 -78.756043 24.390819 101.167264 77.258145 97.346683 -13.815514 -24.639967 0.228284 -0.413629 -1.080293 -0.186241
-31.374901 50.647884 19.842578 164.687152 -6.114435 -0.402913 2.590824 6.460426 0.286995 0.094148 0.264213 -0.022799 0.165390 0.464469 -0.039732 2.168094 6.145594 -0.418531 1.885611 19.008646 0.668116 3.241837 -0.490929 0.630765 2.791613 6.271707 0.515137 -8.546925 -8.960114 -7.486671 -51.803158 -85.426647 73.423238 -2.174318 -3.948442 -36.396081 -4.065050 1.846653 -0.175005 18.937337 -4.144934 2.634909 51.307340 -73.105980 -76.490233 4.175348 -0.465719 24.012399 -18.061450 -72.970927 7.938371 -145.241840 82.956985 -142.018407 -3.055420 -17.612142 -3.976087 -0.158756 0.635569 -0.069742 -5.922918 -78.756875 24.394718 101.170189 77.255715 97.346540 -13.803282 -24.647500 0.229198 -0.417620 -1.087811 -0.191173
-31.375806 50.648030 19.840452 164.678590 -6.121463 -0.398491 2.605503 6.468145 0.281076 0.094156 0.264313 -0.022911 0.165288 0.464327 -0.039922 2.166840 6.145393 -0.421249 1.889114 19.008730 0.666149 3.248987 -0.490721 0.626154 2.791260 6.271864 0.518722 -8.555418 -8.965758 -7.478165 -51.570656 -85.429806 73.182258 -2.178208 -3.953447 -36.392272 -4.066043 1.847457 -0.169610 18.944240 -4.143910 2.632470 51.341172 -73.097075 -76.520402 4.168739 -0.458981 24.003370 -18.025503 -72.966298 7.911119 -145.225529 82.955523 -142.001265 -3.050464 -17.612233 -3.973910 -0.160932 0.636996 -0.070998 -5.908932 -78.748232 24.387204 101.194055 77.248264 97.367142 -13.796818 -24.650526 0.230248 -0.407656 -1.104774 -0.191601
-31.376246 50.648020 19.841408 164.683316 -6.113259 -0.404627 2.604371 6.461498 0.282113 0.096406 0.266812 -0.023158 0.165450 0.464322 -0.040167 2.168256 6.142794 -0.423181 1.895971 19.009622 0.661887 3.249820 -0.493794 0.629683 2.788806 6.271955 0.522849 -8.559231 -8.968176 -7.472945 -51.497475 -85.432203 73.109242 -2.172608 -3.949230 -36.390457 -4.064824 1.851372 -0.171796 18.942220 -4.148478 2.638650 51.356523 -73.094946 -76.543725 4.170278 -0.458638 24.002171 -18.047813 -72.972992 7.931444 -145.214476 82.955458 -141.989018 -3.047078 -17.608885 -3.969124 -0.164257 0.635532 -0.075442 -5.964431 -78.753113 24.437866 101.177412 77.234434 97.338629 -13.780346 -24.644995 0.240060 -0.381890 -1.123993 -0.190456
-31.377626 50.648058 19.843082 164.694303 -6.101389 -0.408402 2.594785 6.452108 0.284158 0.097845 0.266706 -0.023811 0.164329 0.463189 -0.039486 2.168892 6.146853 -0.425774 1.900035 19.006031 0.659212 3.257499 -0.495373 0.624753 2.781124 6.265896 0.524581 -8.553760 -8.969084 -7.470954 -51.439755 -85.433890 73.052836 -2.163851 -3.934358 -36.371999 -4.065822 1.846976 -0.170174 18.949325 -4.151445 2.632904 51.339012 -73.093134 -76.538128 4.168847 -0.460994 24.001127 -18.070133 -72.984530 7.945127 -145.201626 82.954448 -141.974980 -3.044081 -17.606652 -3.966914 -0.167535 0.634464 -0.076301 -6.008351 -78.762384 24.471341 101.135842 77.223772 97.288749 -13.776583 -24.624398 0.238965 -0.387599 -1.137091 -0.188226
-31.380048 50.648170 19.845200 164.712915 -6.087130 -0.408558 2.581119 6.440882 0.281938 0.093567 0.265860 -0.025056 0.165905 0.462604 -0.038185 2.168068 6.148511 -0.428507 1.905130 19.004317 0.656813 3.264664 -0.496634 0.617105 2.782915 6.265250 0.524738 -8.559559 -8.971544 -7.467723 -51.405267 -85.434828 73.021894 -2.159785 -3.925188 -36.365285 -4.061427 1.843721 -0.173650 18.945658 -4.154263 2.637120 51.325227 -73.090389 -76.530346 4.173624 -0.467441 24.014558 -18.092165 -72.999908 7.949255 -145.194023 82.953335 -141.966817 -3.041694 -17.605409 -3.967040 -0.169099 0.633976 -0.075685 -6.016821 -78.773968 24.464402 101.070424 77.215878 97.218663 -13.799660 -24.604791 0.240405 -0.378196 -1.140635 -0.182009
-31.383315 50.648505 19.846676 164.725854 -6.076863 -0.402852 2.566305 6.432295 0.272036 0.094036 0.266315 -0.024304 0.165573 0.464634 -0.040429 2.169002 6.146064 -0.426561 1.910595 19.003344 0.655121 3.291932 -0.500215 0.599195 2.787981 6.267683 0.521900 -8.559646 -8.970274 -7.463928 -51.408277 -85.435824 73.016994 -2.157825 -3.922063 -36.357656 -4.053183 1.842880 -0.175193 18.944202 -4.156508 2.638501 51.308165 -73.091634 -76.521062 4.177452 -0.468078 24.020019 -18.088290 -73.013106 7.931277 -145.182077 82.951985 -141.954217 -3.038161 -17.606293 -3.967077 -0.169160 0.635490 -0.075270 -5.966057 -78.783458 24.405349 100.997281 77.205340 97.145901 -13.822674 -24.568941 0.219334 -0.385248 -1.154061 -0.159402
-31.385405 50.648867 19.849480 164.733565 -6.061893 -0.405971 2.559176 6.419459 0.272565 0.092544 0.265313 -0.024018 0.165138 0.464527 -0.040884 2.167941 6.145589 -0.426553 1.915888 19.003284 0.654236 3.301832 -0.500172 0.595839 2.796810 6.270479 0.520718 -8.553506 -8.968771 -7.462969 -51.217862 -85.436422 72.825849 -2.160656 -3.933823 -36.362310 -4.047578 1.842267 -0.181341 18.941189 -4.155798 2.646293 51.317893 -73.095737 -76.530372 4.181771 -0.465373 24.022036 -18.108071 -73.025840 7.946329 -145.127922 82.953548 -141.898275 -3.035901 -17.605624 -3.966922 -0.168526 0.639275 -0.074867 -5.968325 -78.797657 24.403052 100.936511 77.194671 97.084707 -13.841989 -24.542610 0.208827 -0.380995 -1.159651 -0.146902
